<?xml version="1.0" encoding="UTF-8" standalone="no"?>
<svg
   xmlns:dc="http://purl.org/dc/elements/1.1/"
   xmlns:cc="http://creativecommons.org/ns#"
   xmlns:rdf="http://www.w3.org/1999/02/22-rdf-syntax-ns#"
   xmlns:svg="http://www.w3.org/2000/svg"
   xmlns="http://www.w3.org/2000/svg"
   viewBox="0 0 250 200"
   id="svg54"
   height="200"
   width="250"
   version="1.1">
  <metadata
     id="metadata60">
    <rdf:RDF>
      <cc:Work
         rdf:about="">
        <dc:format>image/svg+xml</dc:format>
        <dc:type
           rdf:resource="http://purl.org/dc/dcmitype/StillImage" />
      </cc:Work>
    </rdf:RDF>
  </metadata>
  <defs
     id="defs58" />
  <path
     id="path2"
     style="fill:#bc2326;fill-rule:evenodd"
     d="m 176.7323,123.1685 c -2.8331,4.9725 5.2578,25.2841 7.6219,29.9019 5.3402,10.4317 9.1056,14.7946 16.8345,22.8447 13.3191,13.8729 35.0913,22.9982 55.686,23.6183 45.3494,1.3655 80.2843,-31.692 86.2266,-71.9958 0.9938,-6.74 -2.9322,-4.4176 -3.2183,-4.1168 -0.9197,0.967 -1.2793,5.9775 -1.6791,7.9597 -11.8593,58.8031 -84.4827,86.3356 -133.0482,42.5973 -10.2765,-9.2551 -18.477,-22.4053 -22.5943,-37.0514 -0.6992,-2.4874 -1.3201,-5.1229 -1.788,-7.8912 -0.5791,-3.4278 0.0887,-6.9486 -4.0411,-5.8667 z" />
  <path
     id="path4"
     style="fill:#ea2830;fill-rule:evenodd"
     d="m 242.8223,166.0964 c -2.439,4.6201 -1.9891,10.8779 1.2393,15.9752 4.2253,6.6719 14.0054,11.4984 23.8399,6.7056 6.2722,-3.0566 13.9941,-13.553 8.5623,-22.9161 -5.7169,-9.8547 -15.6248,-4.8124 -17.7219,-5.3028 -6.3862,-1.493 -12.3865,-1.1548 -15.9196,5.5381 z m 30.3726,8.5413 c 1.7425,-11.039 -7.1251,-11.6249 -13.875,-7.8749 -6.7501,-4.5 -13.6256,-1.1421 -13.125,7.8749 0.3748,6.7499 8.352,11.6252 13.8751,11.6252 5.523,0 12.0004,-4.5006 13.1249,-11.6252 z" />
  <path
     id="path6"
     style="fill:#ea2830;fill-rule:evenodd"
     d="m 319.9355,137.6208 c -1.4391,1.5866 -2.3266,4.3672 -3.4418,6.6264 -6.6083,13.3858 -18.6313,24.1286 -32.0743,29.8018 -5.9977,2.5312 -2.8072,4.9869 -0.4772,4.5642 6.4888,-1.1775 19.8,-11.047 24.9047,-16.5362 4.9989,-5.3757 9.4429,-11.7155 12.4409,-18.3565 1.1235,-2.4888 3.394,-6.1729 -1.3523,-6.0997 z" />
  <path
     id="path8"
     style="fill:#ea2830;fill-rule:evenodd"
     d="m 197.4285,138.1427 c -3.9349,3.2275 11.547,22.3414 14.338,25.1574 3.1925,3.221 7.211,6.4696 11.4622,9.1932 1.5379,0.9853 12.0647,7.5 14.3341,5.8376 3.2939,-2.4127 -2.8172,-4.3735 -3.9492,-4.8865 -2.2914,-1.0382 -4.4934,-2.0998 -6.8996,-3.5923 -8.8885,-5.5132 -15.0929,-11.7466 -20.8594,-20.495 -4.5786,-6.9464 -5.3045,-13.7751 -8.4261,-11.2144 z" />
  <path
     id="path10"
     style="fill:#ffffff;fill-rule:evenodd"
     d="m 236.775,213.026 c 6.9398,4.2666 42.2699,3.6841 45.817,0.2101 1.5877,-1.555 0.6704,-3.6465 -1.3895,-3.6405 -0.004,0 -11.1462,2.0566 -19.0582,2.2641 -4.4485,0.1166 -9.3726,-0.0607 -13.7532,-0.5474 -1.5694,-0.1744 -7.2818,-1.9967 -10.3486,-1.9638 -1.9387,0.0207 -3.4417,2.3408 -1.2675,3.6775 z" />
  <path
     id="path12"
     style="fill:#ffffff;fill-rule:evenodd"
     d="m 257.2867,178.5166 c 0.248,2.0119 1.2167,3.1691 2.4237,3.9599 1.2268,-0.7917 2.2381,-2.0156 2.3652,-3.9152 l -2.2739,-2.2608 z" />
  <path
     id="path14"
     style="fill:#ffffff;fill-rule:evenodd"
     d="m 253.3277,169.38 a 2.2502,2.2502 0 0 1 2.2502,2.2503 2.2502,2.2502 0 1 1 -2.2502,-2.2503 z" />
  <path
     id="path16"
     style="fill:#ffffff;fill-rule:evenodd"
     d="m 265.7289,169.38 a 2.2502,2.2502 0 0 1 2.2503,2.2503 2.2502,2.2502 0 1 1 -2.2503,-2.2503 z" />
  <path
     id="path18"
     style="fill:#074475;fill-rule:evenodd;stroke:#00619c;stroke-width:0.56690001;stroke-linecap:butt;stroke-linejoin:miter;stroke-dasharray:none"
     d="m 205.8545,149.3572 c -4.5785,-6.9466 -5.3045,-13.7752 -8.426,-11.2144 -3.9347,3.2275 11.547,22.3412 14.338,25.1572 3.1926,3.221 7.211,6.4698 11.4621,9.1933 1.5381,0.9853 12.0648,7.4999 14.3343,5.8377 3.2938,-2.4129 -2.8174,-4.3736 -3.9493,-4.8867 -2.2915,-1.038 -4.4934,-2.0996 -6.8995,-3.592 -8.8886,-5.5134 -15.0931,-11.7468 -20.8596,-20.4951 z" />
  <path
     id="path20"
     style="fill:#074475;fill-rule:evenodd;stroke:#00619c;stroke-width:0.56690001;stroke-linecap:butt;stroke-linejoin:miter;stroke-dasharray:none"
     d="m 284.4196,174.0489 c -5.9979,2.5314 -2.8075,4.987 -0.4774,4.5644 6.4888,-1.1775 19.8,-11.0472 24.9046,-16.5362 4.9989,-5.3759 9.4431,-11.7156 12.441,-18.3566 1.1234,-2.4888 3.3939,-6.173 -1.3524,-6.0999 -1.4389,1.5869 -2.3264,4.3674 -3.4415,6.6266 -6.6085,13.3857 -18.6316,24.1285 -32.0743,29.8017 z" />
  <path
     id="path22"
     style="fill:#074475;fill-rule:evenodd;stroke:#00619c;stroke-width:0.56690001;stroke-linecap:butt;stroke-linejoin:miter;stroke-dasharray:none"
     d="m 267.9015,188.7772 c 6.2722,-3.0566 13.9941,-13.553 8.5623,-22.9164 -5.7169,-9.8544 -15.6248,-4.8121 -17.7219,-5.3025 -6.3862,-1.493 -12.3865,-1.1548 -15.9196,5.5381 -2.439,4.6201 -1.9891,10.8779 1.2393,15.9752 4.2253,6.6719 14.0054,11.4984 23.8399,6.7056 z m -8.5816,-22.0144 c 6.7499,-3.75 15.6175,-3.1641 13.875,7.8749 -1.1245,7.1246 -7.6019,11.6252 -13.1247,11.6252 -5.5233,0 -13.5005,-4.8753 -13.8753,-11.6252 -0.5006,-9.017 6.3749,-12.3749 13.125,-7.8749 z" />
  <path
     id="path24"
     style="fill:#074475;fill-rule:evenodd;stroke:#00619c;stroke-width:0.56690001;stroke-linecap:butt;stroke-linejoin:miter;stroke-dasharray:none"
     d="m 205.1558,173.9778 c -10.2765,-9.2551 -18.4771,-22.4053 -22.5944,-37.0514 -0.6993,-2.4874 -1.3201,-5.123 -1.7878,-7.8911 -0.5794,-3.4279 0.0884,-6.9488 -4.0414,-5.8668 -2.8329,4.9725 5.258,25.2842 7.6221,29.9018 5.3402,10.4318 9.1054,14.7946 16.8344,22.8447 13.3191,13.873 35.0912,22.9983 55.686,23.6185 45.3496,1.3655 80.2843,-31.6921 86.2266,-71.996 0.9938,-6.7399 -2.9322,-4.4175 -3.2182,-4.1167 -0.9199,0.9671 -1.2796,5.9774 -1.6793,7.9596 -11.8593,58.8034 -84.4826,86.3357 -133.048,42.5974 z" />
  <path
     id="path26"
     style="fill:#0e6284;fill-rule:evenodd;stroke:#00619c;stroke-width:0.56690001;stroke-linecap:butt;stroke-linejoin:miter;stroke-dasharray:none"
     d="m 253.3275,169.38 c -1.2427,0 -2.2502,1.0074 -2.2502,2.2501 0,1.2428 1.0075,2.2502 2.2502,2.2502 1.2427,0 2.2501,-1.0074 2.2501,-2.2502 0,-1.2427 -1.0074,-2.2501 -2.2501,-2.2501 z" />
  <path
     id="path28"
     style="fill:#0e6284;fill-rule:evenodd;stroke:#00619c;stroke-width:0.56690001;stroke-linecap:butt;stroke-linejoin:miter;stroke-dasharray:none"
     d="m 265.7288,169.38 c -1.2428,0 -2.2502,1.0074 -2.2502,2.2501 0,1.2428 1.0074,2.2502 2.2502,2.2502 1.2427,0 2.2501,-1.0074 2.2501,-2.2502 0,-1.2427 -1.0074,-2.2501 -2.2501,-2.2501 z" />
  <path
     id="path30"
     style="fill:#074475;fill-rule:evenodd;stroke:#00619c;stroke-width:0.56690001;stroke-linecap:butt;stroke-linejoin:miter;stroke-dasharray:none"
     d="m 248.3912,211.3123 c -1.5695,-0.1743 -7.2819,-1.9967 -10.3487,-1.9638 -1.9386,0.0207 -3.4418,2.3409 -1.2674,3.6774 6.9398,4.2667 42.27,3.6842 45.817,0.21 1.5876,-1.5548 0.6704,-3.6462 -1.3896,-3.6402 -0.004,0 -11.1461,2.0565 -19.0582,2.264 -4.4486,0.1165 -9.3727,-0.0606 -13.7531,-0.5474 z" />
  <path
     id="path32"
     style="fill:#074475;fill-rule:evenodd;stroke:#00619c;stroke-width:0.56690001;stroke-linecap:butt;stroke-linejoin:miter;stroke-dasharray:none"
     d="m 257.2866,178.5166 c 0.248,2.0121 1.2166,3.1692 2.4239,3.9598 1.2269,-0.7918 2.238,-2.0155 2.365,-3.915 l -2.2737,-2.2609 z" />
  <text
     id="text36"
     y="144.0984"
     x="240.2178">
    <tspan
       style="font-size:18px;font-family:'Exo 2';fill:#074475"
       id="tspan34"
       font-size="18.0000">N</tspan>
  </text>
  <text
     id="text40"
     y="144.0479"
     x="253.6676">
    <tspan
       style="font-size:18px;font-family:'Exo 2';fill:#074475"
       id="tspan38"
       font-size="18.0000">O</tspan>
  </text>
  <text
     id="text44"
     y="144.60719"
     x="266.9071">
    <tspan
       style="font-size:18px;font-family:'Exo 2';fill:#074475"
       id="tspan42"
       font-size="18.0000">W</tspan>
  </text>
  <text
     id="text48"
     y="144.076"
     x="228.4648">
    <tspan
       style="font-size:18px;font-family:'Exo 2';fill:#074475"
       id="tspan46"
       font-size="18.0000">K</tspan>
  </text>
  <text
     id="text52"
     y="145.24071"
     x="287.51071">
    <tspan
       style="font-size:18px;font-family:'Exo 2 Medium';fill:#074475"
       id="tspan50"
       font-size="18.0000">L</tspan>
  </text>
</svg>
