<svg width="253" height="137" viewBox="0 0 253 137" version="1.1" xmlns="http://www.w3.org/2000/svg" xmlns:xlink="http://www.w3.org/1999/xlink">
<title>color_logo</title>
<desc>Created using Figma</desc>
<g id="Canvas" transform="translate(-6788 -1383)">
<g id="color_logo">
<g id="Layer_1">
<g id="Color logo">
<g id="Shape">
<use xlink:href="#path0_fill" transform="translate(6924.19 1416.16)" fill="url(#paint0_linear)"/>
</g>
<g id="Oval">
<use xlink:href="#path1_fill" transform="translate(6903.58 1416.16)" fill="url(#paint1_linear)"/>
</g>
<g id="Shape">
<use xlink:href="#path2_fill" transform="translate(6788 1383.99)" fill="url(#paint2_linear)"/>
</g>
<g id="Shape">
<use xlink:href="#path3_fill" transform="translate(6838 1402.67)" fill="url(#paint3_linear)"/>
</g>
<g id="Shape">
<use xlink:href="#path4_fill" transform="translate(6951.32 1402.67)" fill="url(#paint4_linear)"/>
</g>
<g id="Shape">
<use xlink:href="#path5_fill" transform="translate(7029 1383.99)" fill="url(#paint5_linear)"/>
</g>
<g id="Shape">
<use xlink:href="#path6_fill" transform="translate(6891.06 1391.53)" fill="url(#paint6_linear)"/>
</g>
<g id="Shape">
<use xlink:href="#path7_fill" transform="translate(6889.18 1450.52)" fill="url(#paint7_linear)"/>
</g>
</g>
</g>
</g>
</g>
<defs>
<linearGradient id="paint0_linear" x1="0" y1="0" x2="1" y2="0" gradientUnits="userSpaceOnUse" gradientTransform="matrix(274.024 2.5607 -2.56097 273.995 -146.944 3.2522)">
<stop offset="0" stop-color="#7B1FA2"/>
<stop offset="0.2999" stop-color="#212121"/>
<stop offset="0.548" stop-color="#263238"/>
<stop offset="0.8116" stop-color="#03A9F4"/>
<stop offset="1" stop-color="#26C6DA"/>
</linearGradient>
<linearGradient id="paint1_linear" x1="0" y1="0" x2="1" y2="0" gradientUnits="userSpaceOnUse" gradientTransform="matrix(274.048 2.561 -2.561 274.048 -126.351 3.4441)">
<stop offset="0" stop-color="#7B1FA2"/>
<stop offset="0.2999" stop-color="#212121"/>
<stop offset="0.548" stop-color="#263238"/>
<stop offset="0.8116" stop-color="#03A9F4"/>
<stop offset="1" stop-color="#26C6DA"/>
</linearGradient>
<linearGradient id="paint2_linear" x1="0" y1="0" x2="1" y2="0" gradientUnits="userSpaceOnUse" gradientTransform="matrix(276.126 2.5803 -1.63398 436.044 -11.1919 34.7054)">
<stop offset="0" stop-color="#7B1FA2"/>
<stop offset="0.2999" stop-color="#212121"/>
<stop offset="0.548" stop-color="#263238"/>
<stop offset="0.8116" stop-color="#03A9F4"/>
<stop offset="1" stop-color="#26C6DA"/>
</linearGradient>
<linearGradient id="paint3_linear" x1="0" y1="0" x2="1" y2="0" gradientUnits="userSpaceOnUse" gradientTransform="matrix(277.798 2.596 -2.29991 313.562 -62.3975 24.7817)">
<stop offset="0" stop-color="#7B1FA2"/>
<stop offset="0.2999" stop-color="#212121"/>
<stop offset="0.548" stop-color="#263238"/>
<stop offset="0.8116" stop-color="#03A9F4"/>
<stop offset="1" stop-color="#26C6DA"/>
</linearGradient>
<linearGradient id="paint4_linear" x1="0" y1="0" x2="1" y2="0" gradientUnits="userSpaceOnUse" gradientTransform="matrix(274.071 2.5612 -3.62488 193.648 -174.168 23.4999)">
<stop offset="0" stop-color="#7B1FA2"/>
<stop offset="0.2999" stop-color="#212121"/>
<stop offset="0.548" stop-color="#263238"/>
<stop offset="0.8116" stop-color="#03A9F4"/>
<stop offset="1" stop-color="#26C6DA"/>
</linearGradient>
<linearGradient id="paint5_linear" x1="0" y1="0" x2="1" y2="0" gradientUnits="userSpaceOnUse" gradientTransform="matrix(271.939 2.5413 -0.400897 1723.83 -249.88 32.4861)">
<stop offset="0" stop-color="#7B1FA2"/>
<stop offset="0.2999" stop-color="#212121"/>
<stop offset="0.548" stop-color="#263238"/>
<stop offset="0.8116" stop-color="#03A9F4"/>
<stop offset="1" stop-color="#26C6DA"/>
</linearGradient>
<linearGradient id="paint6_linear" x1="0" y1="0" x2="1" y2="0" gradientUnits="userSpaceOnUse" gradientTransform="matrix(274.058 2.5611 -2.25502 311.256 -113.852 29.8111)">
<stop offset="0" stop-color="#7B1FA2"/>
<stop offset="0.2999" stop-color="#212121"/>
<stop offset="0.548" stop-color="#263238"/>
<stop offset="0.8116" stop-color="#03A9F4"/>
<stop offset="1" stop-color="#26C6DA"/>
</linearGradient>
<linearGradient id="paint7_linear" x1="0" y1="0" x2="1" y2="0" gradientUnits="userSpaceOnUse" gradientTransform="matrix(274.066 2.5611 -2.15485 325.736 -112.56 33.1502)">
<stop offset="0" stop-color="#7B1FA2"/>
<stop offset="0.2999" stop-color="#212121"/>
<stop offset="0.548" stop-color="#263238"/>
<stop offset="0.8116" stop-color="#03A9F4"/>
<stop offset="1" stop-color="#26C6DA"/>
</linearGradient>
<path id="path0_fill" fill-rule="evenodd" d="M 4.667 0C 2.089 0 0 2.089 0 4.668C 0 7.245 2.089 9.336 4.667 9.336C 7.249 9.336 9.337 7.245 9.337 4.668C 9.336 2.089 7.249 0 4.667 0Z"/>
<path id="path1_fill" fill-rule="evenodd" d="M 4.668 9.336C 7.24607 9.336 9.336 7.24607 9.336 4.668C 9.336 2.08994 7.24607 0 4.668 0C 2.08994 0 0 2.08994 0 4.668C 0 7.24607 2.08994 9.336 4.668 9.336Z"/>
<path id="path2_fill" fill-rule="evenodd" d="M 41.511 57.649L 28.628 37.404L 35.299 31.284C 38.704 28.219 40.407 25.765 40.407 23.925C 40.407 22.421 39.884 21.172 38.841 20.174C 37.799 19.178 36.495 18.68 34.933 18.68C 33.613 18.68 32.493 19.017 31.572 19.692C 30.653 20.367 29.096 21.624 27.348 23.464L 13 38.279L 13 7.821C 13 5.244 12.654 3.297 11.521 1.979C 10.384 0.662 8.962 0 7.031 0C 5.037 0 3.093 0.73 2.02 2.187C 0.946 3.643 0 5.767 0 8.559L 0 62.114C 0 64.628 1.017 66.529 2.122 67.817C 3.226 69.106 4.976 69.751 6.91 69.751C 8.564 69.751 9.925 69.1 11.198 67.794C 12.469 66.492 13 64.627 13 62.205L 13 52.222L 20.033 45.781L 31.232 63.999C 32.64 66.179 33.817 67.679 34.643 68.509C 35.473 69.337 36.683 69.751 38.216 69.751C 39.993 69.751 41.443 69.176 42.531 68.026C 43.618 66.877 44.17 65.303 44.17 63.308C 44.17 62.602 43.968 61.862 43.554 61.078C 43.141 60.295 42.461 59.154 41.511 57.649Z"/>
<path id="path3_fill" fill-rule="evenodd" d="M 44.094 8.281C 42.805 5.643 40.855 3.604 38.249 2.161C 35.641 0.719 32.683 0 29.367 0C 25.965 0 22.91 0.683 20.287 2.046C 17.665 3.412 15 5.553 13 8.466L 13 6.947C 13 5.444 12.773 4.171 12.236 3.127C 11.699 2.085 11.006 1.302 10.117 0.781C 9.226 0.26 8.242 0.001 7.137 0.001C 5.326 0.001 3.254 0.589 2.211 1.772C 1.168 2.954 0 4.739 0 7.132L 0 43.434C 0 45.886 1.233 47.774 2.399 49.092C 3.565 50.41 5.38 51.071 7.189 51.071C 9.06 51.071 10.317 50.434 11.5 49.161C 12.68 47.89 13 45.981 13 43.434L 13 27.697C 13 22.575 13.738 19.079 14.353 17.207C 15.211 14.877 16.78 13.044 18.618 11.709C 20.458 10.375 22.605 9.708 24.846 9.708C 28.281 9.708 30.847 10.806 31.999 12.997C 33.15 15.191 34 18.358 34 22.499L 34 43.434C 34 45.886 34.36 47.774 35.525 49.092C 36.691 50.41 38.099 51.071 39.972 51.071C 41.81 51.071 42.714 50.426 43.867 49.137C 45.017 47.849 45 45.948 45 43.434L 45 20.059C 45 17.301 45.414 15.031 45.168 13.25C 44.921 11.473 44.921 9.814 44.094 8.281Z"/>
<path id="path4_fill" fill-rule="evenodd" d="M 66.712 0C 65.21 0 64.06 0.345 63.26 1.033C 62.464 1.723 61.897 2.522 61.561 3.427C 61.223 4.332 60.777 5.796 60.225 7.822L 51.944 35.888L 44.489 9.799C 43.723 7.193 43.126 5.36 42.697 4.301C 42.267 3.242 41.522 2.263 40.465 1.356C 39.407 0.452 37.943 0.001 36.071 0.001C 34.231 0.001 32.782 0.452 31.723 1.356C 30.664 2.263 29.944 3.213 29.562 4.209C 29.177 5.206 28.584 7.07 27.79 9.8L 20.336 35.889L 12.146 7.823C 11.318 4.969 10.538 2.954 9.799 1.772C 9.064 0.589 7.653 0.001 5.567 0.001C 4.005 0.001 2.684 0.538 1.611 1.609C 0.537 2.684 0 3.896 0 5.246C 0 6.319 0.508 8.268 1.52 11.088L 11.688 41.179C 11.962 41.976 12.348 43.057 12.838 44.422C 13.329 45.789 13.897 46.967 14.54 47.965C 15.184 48.962 15.988 49.729 16.955 50.266C 17.923 50.803 19.094 51.071 20.475 51.071C 23.175 51.071 25.061 50.203 26.135 48.471C 27.209 46.739 28.205 44.168 29.125 40.764L 36.072 16.286L 43.249 40.764C 43.862 42.973 44.43 44.768 44.952 46.147C 45.473 47.528 46.277 48.696 47.369 49.644C 48.457 50.594 49.951 51.071 51.853 51.071C 53.694 51.071 55.143 50.626 56.201 49.736C 57.258 48.847 58.034 47.835 58.522 46.7C 59.015 45.565 59.705 43.725 60.594 41.179L 70.855 11.088C 71.805 8.482 72.281 6.533 72.281 5.246C 72.281 3.836 71.728 2.607 70.625 1.564C 69.518 0.52 68.215 0 66.712 0Z"/>
<path id="path5_fill" fill-rule="evenodd" d="M 9.955 1.911C 8.789 0.638 7.607 0 5.707 0C 3.803 0 2.546 0.645 1.427 1.934C 0.308 3.221 0 5.123 0 7.638L 0 62.114C 0 64.566 0.498 66.454 1.647 67.772C 2.795 69.09 4.253 69.751 6.097 69.751C 7.966 69.751 8.77 69.114 9.951 67.841C 11.131 66.57 10.999 64.661 10.999 62.114L 10.999 7.638C 11 5.094 11.12 3.185 9.955 1.911Z"/>
<path id="path6_fill" fill-rule="evenodd" d="M 51.798 18.0243C 50.478 15.3433 48.769 13.0443 46.678 11.1183C 48.923 9.19034 52.846 5.86134 52.718 2.81234C 52.679 1.87834 52.307 -0.625661 51.302 0.148339C 44.368 5.47534 34.023 5.08034 25.724 5.32234C 17.794 5.55334 8.023 5.20634 1.429 0.145339C 0.425 -0.625661 0.052 1.87734 0.014 2.81134C -0.124 6.14834 4.598 9.82934 6.646 11.6323C 6.834 11.7963 7.042 11.9833 7.243 12.2193C 4.89 14.7453 3.097 17.8123 1.858 21.4153C 0.621 25.0153 0 28.9733 0 33.2903C 0 37.5043 0.596 41.4273 1.782 45.0523C 2.969 48.6783 4.727 51.7823 7.048 54.3643C 9.373 56.9403 12.274 58.9383 15.747 60.3583C 19.218 61.7753 23.151 62.4833 27.548 62.4833C 31.965 62.4833 35.887 61.7943 39.31 60.4153C 42.733 59.0383 45.617 57.0443 47.968 54.4383C 50.317 51.8333 52.08 48.7543 53.255 45.2033C 54.428 41.6553 55.016 37.7093 55.016 33.3673C 55.015 27.4943 53.943 22.3803 51.798 18.0243ZM 39.154 42.6934C 37.272 42.8594 35.462 42.5924 33.79 42.0084L 27.836 47.9634L 21.869 41.9944L 21.969 41.8924C 20.894 42.3014 19.751 42.5854 18.546 42.6924C 11.443 43.3194 5.17597 38.0694 4.54997 30.9634C 3.92197 23.8584 9.17297 17.5904 16.278 16.9624C 20.882 16.5584 25.125 18.6294 27.717 22.0634C 29.842 19.2484 33.096 17.2994 36.884 16.9624C 43.991 16.3374 50.259 21.5874 50.885 28.6934C 51.513 35.7984 46.259 42.0674 39.154 42.6934Z"/>
<path id="path7_fill" fill-rule="evenodd" d="M 57.9993 60.2874C 57.6223 48.7314 53.1603 37.8754 45.2313 29.3914C 39.6333 23.3974 32.9013 18.4954 25.3043 15.2404C 18.0883 12.1494 10.4003 9.24843 5.38132 2.87543C 4.38332 1.60743 3.33632 -0.223566 1.45332 0.022434C 0.0583237 0.202434 -0.0396762 7.16343 0.00932377 8.65143C 0.387324 20.2054 5.00032 31.0844 12.9263 39.5714C 18.7643 45.8164 25.3733 50.6034 33.2483 53.9074C 40.3163 56.8724 47.8703 59.8794 52.7583 66.0864C 53.7553 67.3514 54.7163 69.1694 56.5983 68.9244C 57.9943 68.7404 58.0473 61.7734 57.9993 60.2874Z"/>
</defs>
</svg>