<svg width="128" height="69" viewBox="0 0 128 69" version="1.1" xmlns="http://www.w3.org/2000/svg" xmlns:xlink="http://www.w3.org/1999/xlink">
<title>White logo</title>
<desc>Created using Figma</desc>
<g id="Canvas" transform="translate(-6025 -324)">
<g id="White logo">
<g id="Fill 1">
<use xlink:href="#path0_fill" transform="translate(6094.25 340.991)" fill="#FFFFFF"/>
</g>
<g id="Fill 3">
<use xlink:href="#path1_fill" transform="translate(6083.88 340.991)" fill="#FFFFFF"/>
</g>
<g id="Group 7">
<mask id="mask0_outline" mask-type="alpha">
<g id="Clip 6">
<use xlink:href="#path2_fill" transform="translate(6025 324.798)" fill="#FFFFFF"/>
</g>
</mask>
<g id="Fill 5" mask="url(#mask0_outline)">
<use xlink:href="#path3_fill" transform="translate(6025 324.798)" fill="#FFFFFF"/>
</g>
</g>
<g id="Fill 8">
<use xlink:href="#path4_fill" transform="translate(6050 334.202)" fill="#FFFFFF"/>
</g>
<g id="Fill 10">
<use xlink:href="#path5_fill" transform="translate(6107.91 334.202)" fill="#FFFFFF"/>
</g>
<g id="Fill 12">
<use xlink:href="#path6_fill" transform="translate(6146 324.798)" fill="#FFFFFF"/>
</g>
<g id="Fill 14">
<use xlink:href="#path7_fill" transform="translate(6077.58 328.595)" fill="#FFFFFF"/>
</g>
<g id="Fill 16">
<use xlink:href="#path8_fill" transform="translate(6076.63 358.291)" fill="#FFFFFF"/>
</g>
</g>
</g>
<defs>
<path id="path0_fill" fill-rule="evenodd" d="M 2.349 0C 1.053 0 0 1.052 0 2.351C 0 3.648 1.053 4.7 2.349 4.7C 3.649 4.7 4.701 3.648 4.701 2.351C 4.701 1.052 3.649 0 2.349 0Z"/>
<path id="path1_fill" fill-rule="evenodd" d="M 2.35 0C 1.052 0 0 1.052 0 2.351C 0 3.648 1.052 4.7 2.35 4.7C 3.65 4.7 4.701 3.648 4.701 2.351C 4.701 1.052 3.65 0 2.35 0Z"/>
<path id="path2_fill" fill-rule="evenodd" d="M 0 0L 127.098 0L 127.098 68.202L 0 68.202"/>
<path id="path3_fill" fill-rule="evenodd" d="M 21.593 29.021L 15.108 18.831L 18.466 15.75C 20.18 14.206 21.036 12.971 21.036 12.043C 21.036 11.287 20.775 10.659 20.249 10.156C 19.725 9.654 19.069 9.404 18.28 9.404C 17.616 9.404 17.052 9.574 16.589 9.913C 16.126 10.253 15.223 10.886 14.342 11.812L 7 19.27L 7 3.938C 7 2.641 6.946 1.66 6.375 0.996C 5.803 0.333 5.147 0 4.174 0C 3.17 0 1.873 0.367 1.335 1.101C 0.793 1.834 0 2.903 0 4.308L 0 31.269C 0 32.534 0.861 33.492 1.416 34.14C 1.973 34.788 3.027 35.113 4 35.113C 4.834 35.113 5.486 34.785 6.126 34.128C 6.767 33.473 7 32.534 7 31.314L 7 26.289L 10.659 23.045L 16.356 32.217C 17.069 33.314 17.689 34.07 18.106 34.487C 18.524 34.904 19.147 35.113 19.918 35.113C 20.813 35.113 21.55 34.823 22.101 34.244C 22.649 33.665 22.928 32.874 22.928 31.87C 22.928 31.516 22.828 31.141 22.619 30.747C 22.41 30.353 22.071 29.778 21.593 29.021Z"/>
<path id="path4_fill" fill-rule="evenodd" d="M 23.062 4.168C 22.414 2.84 21.432 1.814 20.121 1.088C 18.808 0.362 17.318 0 15.65 0C 13.936 0 12.193 0.344 10.872 1.03C 9.554 1.717 7.999 2.794 7 4.261L 7 3.497C 7 2.74 7.09 2.1 6.82 1.574C 6.548 1.049 6.304 0.655 5.855 0.393C 5.41 0.13 4.964 0 4.409 0C 3.497 0 2.044 0.296 1.521 0.89C 0.996 1.486 0 2.385 0 3.589L 0 21.864C 0 23.099 1.053 24.048 1.64 24.712C 2.227 25.376 3.357 25.709 4.268 25.709C 5.209 25.709 5.746 25.388 6.34 24.748C 6.933 24.107 7 23.146 7 21.864L 7 13.942C 7 11.363 7.576 9.604 7.886 8.662C 8.318 7.488 9.21 6.566 10.136 5.894C 11.062 5.222 12.194 4.886 13.32 4.886C 15.05 4.886 15.877 5.439 16.457 6.542C 17.037 7.647 17 9.241 17 11.325L 17 21.864C 17 23.099 17.671 24.048 18.259 24.712C 18.845 25.376 19.797 25.709 20.74 25.709C 21.668 25.709 21.986 25.384 22.565 24.735C 23.144 24.087 23 23.13 23 21.864L 23 10.097C 23 8.708 23.468 7.565 23.345 6.67C 23.22 5.774 23.478 4.94 23.062 4.168Z"/>
<path id="path5_fill" fill-rule="evenodd" d="M 33.585 0C 32.828 0 32.248 0.173 31.848 0.521C 31.445 0.868 31.16 1.27 30.991 1.725C 30.82 2.181 30.598 2.918 30.318 3.937L 26.15 18.065L 22.397 4.934C 22.012 3.621 21.711 2.698 21.495 2.166C 21.278 1.632 20.904 1.139 20.371 0.683C 19.839 0.228 19.101 0 18.159 0C 17.232 0 16.503 0.228 15.97 0.683C 15.438 1.139 15.075 1.617 14.882 2.119C 14.689 2.621 14.391 3.559 13.99 4.934L 10.238 18.065L 6.115 3.937C 5.697 2.501 5.306 1.486 4.935 0.891C 4.564 0.297 3.854 0 2.803 0C 2.017 0 1.352 0.27 0.812 0.811C 0.271 1.351 0 1.96 0 2.64C 0 3.181 0.256 4.161 0.765 5.582L 5.884 20.729C 6.023 21.131 6.216 21.675 6.463 22.362C 6.709 23.049 6.996 23.644 7.319 24.146C 7.644 24.648 8.05 25.034 8.535 25.304C 9.023 25.574 9.612 25.709 10.308 25.709C 11.666 25.709 12.616 25.272 13.157 24.4C 13.696 23.528 14.199 22.235 14.662 20.521L 18.159 8.198L 21.772 20.521C 22.081 21.633 22.366 22.536 22.63 23.23C 22.891 23.925 23.296 24.512 23.846 24.991C 24.394 25.469 25.146 25.709 26.104 25.709C 27.03 25.709 27.76 25.484 28.292 25.037C 28.824 24.589 29.215 24.08 29.462 23.508C 29.709 22.938 30.056 22.011 30.505 20.729L 35.669 5.582C 36.148 4.27 36.387 3.289 36.387 2.64C 36.387 1.93 36.109 1.312 35.553 0.787C 34.997 0.262 34.341 0 33.585 0Z"/>
<path id="path6_fill" fill-rule="evenodd" d="M 5.752 0.961C 5.166 0.32 4.707 0 3.749 0C 2.792 0 1.719 0.324 1.156 0.972C 0.594 1.621 0 2.579 0 3.844L 0 31.268C 0 32.503 0.76 33.452 1.338 34.116C 1.918 34.78 2.904 35.112 3.831 35.112C 4.773 35.112 5.027 34.792 5.623 34.151C 6.217 33.511 6 32.549 6 31.268L 6 3.844C 6 2.564 6.34 1.602 5.752 0.961Z"/>
<path id="path7_fill" fill-rule="evenodd" d="M 19.71 21.4908C 18.764 21.5738 17.852 21.4398 17.01 21.1458L 14.013 24.1428L 11.009 21.1388L 11.06 21.0878C 10.518 21.2938 9.94298 21.4368 9.33698 21.4908C 5.76098 21.8058 2.60498 19.1628 2.28998 15.5868C 1.97598 12.0088 4.61798 8.85376 8.19498 8.53776C 10.512 8.33476 12.648 9.37676 13.953 11.1058C 15.023 9.68876 16.661 8.70676 18.567 8.53776C 22.146 8.22276 25.301 10.8668 25.615 14.4438C 25.932 18.0198 23.287 21.1758 19.71 21.4908ZM 26.075 9.07176C 25.412 7.72376 24.552 6.56576 23.499 5.59576C 24.628 4.62676 26.603 2.94876 26.539 1.41476C 26.52 0.944762 26.332 -0.316238 25.827 0.0737616C 22.335 2.75576 17.128 2.55576 12.95 2.67776C 8.958 2.79376 4.04 2.62076 0.72 0.0737616C 0.215 -0.316238 0.026 0.944762 0.007 1.41476C -0.062 3.09376 2.315 4.94876 3.346 5.85476C 3.44 5.93676 3.546 6.03076 3.646 6.15076C 2.462 7.42276 1.56 8.96576 0.936 10.7788C 0.314 12.5928 0 14.5848 0 16.7588C 0 18.8798 0.299 20.8528 0.896 22.6788C 1.494 24.5048 2.379 26.0678 3.549 27.3658C 4.719 28.6638 6.179 29.6708 7.927 30.3848C 9.675 31.0968 11.655 31.4548 13.867 31.4548C 16.091 31.4548 18.065 31.1068 19.788 30.4128C 21.512 29.7188 22.964 28.7158 24.147 27.4048C 25.33 26.0928 26.218 24.5438 26.809 22.7558C 27.398 20.9698 27.695 18.9828 27.695 16.7968C 27.695 13.8398 27.156 11.2638 26.075 9.07176Z"/>
<path id="path8_fill" fill-rule="evenodd" d="M 29.1961 30.3491C 29.0061 24.5331 26.7591 19.0681 22.7691 14.7971C 19.9501 11.7791 16.5621 9.31115 12.7371 7.67215C 9.10512 6.11715 5.23512 4.65615 2.70812 1.44715C 2.20612 0.810146 1.67912 -0.111854 0.73112 0.0111457C 0.0281201 0.103146 -0.0208799 3.60615 0.00512008 4.35515C 0.19312 10.1721 2.51612 15.6491 6.50712 19.9201C 9.44512 23.0651 12.7721 25.4751 16.7361 27.1381C 20.2951 28.6301 24.0971 30.1441 26.5581 33.2681C 27.0601 33.9061 27.5451 34.8211 28.4911 34.6971C 29.1941 34.6051 29.2201 31.0981 29.1961 30.3491Z"/>
</defs>
</svg>